#!OML:ASF G:\JayActor3\Patient Classification 1\Patient 1\Session 5\male.ASF
:FULLY-SPECIFIED
:DEGREES
900
root -14.6549 15.9377 -6.41771 491.741 -92.157 -479.665
lowerback 35.5413 -1.23835 1.6213
upperback 8.99294 -2.14384 -1.24156
thorax -7.90335 -1.40697 -1.31196
lowerneck 2.59669 0.123426 1.39928
upperneck -23.1121 0.000149122 1.59185
head -7.50976 -0.571708 0.325829
rclavicle 2.23633e-014 8.05078e-015
rhumerus -30.2514 0.524712 -87.086
rradius 39.9805
rwrist -0.7918
rhand -19.4696 -8.83951
rfingers 7.12502
rthumb 6.85188 -38.7086
lclavicle 2.23633e-014 8.05078e-015
lhumerus -29.3873 -3.03227 82.3682
lradius 41.0994
lwrist 24.7788
lhand -18.667 11.5202
lfingers 7.12502
lthumb 7.6266 41.3627
rfemur -72.1417 -2.09705 17.9185
rtibia 55.1204
rfoot 22.6077 -14.5838
rtoes -1.95225
lfemur -53.1011 20.3408 -31.2289
ltibia 77.3531
lfoot 10.4136 -3.43543
ltoes -33.3171
901
root -14.7788 15.9475 -6.43754 494.062 -92.2702 -481.903
lowerback 35.4553 -1.25538 1.59925
upperback 8.99545 -2.16931 -1.24103
thorax -7.87 -1.41703 -1.29254
lowerneck 2.61905 0.109692 1.4059
upperneck -23.1449 -0.0131168 1.61559
head -7.5247 -0.581659 0.333773
rclavicle 2.11706e-014 3.84648e-014
rhumerus -30.2809 0.480654 -87.0383
rradius 39.9191
rwrist -0.794741
rhand -19.481 -8.81955
rfingers 7.12502
rthumb 6.84088 -38.689
lclavicle 2.11706e-014 3.84648e-014
lhumerus -29.4595 -3.04674 82.3766
lradius 41.1089
lwrist 24.7862
lhand -18.6549 11.4642
lfingers 7.12502
lthumb 7.63823 41.3063
rfemur -71.8901 -2.09945 17.906
rtibia 53.6987
rfoot 23.0062 -15.5318
rtoes 0.0366849
lfemur -52.6165 20.3991 -31.0039
ltibia 77.2488
lfoot 10.5169 -3.61697
ltoes -33.312
902
root -14.9061 15.9542 -6.45838 496.387 -92.3993 -484.154
lowerback 35.3693 -1.2795 1.57952
upperback 8.99495 -2.20235 -1.24176
thorax -7.84025 -1.43048 -1.27287
lowerneck 2.63606 0.0961172 1.41858
upperneck -23.1509 -0.0256757 1.63483
head -7.52977 -0.590374 0.3389
rclavicle 1.18277e-014 3.18055e-015
rhumerus -30.3123 0.435212 -86.9967
rradius 39.8524
rwrist -0.786776
rhand -19.4836 -8.80899
rfingers 7.12502
rthumb 6.83837 -38.6786
lclavicle 1.18277e-014 3.18055e-015
lhumerus -29.5413 -3.06048 82.38
lradius 41.1068
lwrist 24.7993
lhand -18.6332 11.4154
lfingers 7.12502
lthumb 7.65915 41.2567
rfemur -71.643 -2.11839 17.9088
rtibia 52.5297
rfoot 23.2526 -16.4074
rtoes 1.82491
lfemur -52.1275 20.4532 -30.7708
ltibia 77.1673
lfoot 10.6204 -3.83426
ltoes -33.3638
903
root -15.0365 15.9582 -6.48026 498.75 -92.5446 -486.452
lowerback 35.2837 -1.31072 1.56546
upperback 8.99262 -2.24173 -1.24113
thorax -7.81289 -1.44681 -1.2524
lowerneck 2.64789 0.0800472 1.42999
upperneck -23.1329 -0.0414229 1.65307
head -7.52592 -0.599522 0.343901
rclavicle -3.12092e-014 -6.7388e-014
rhumerus -30.3453 0.391935 -86.9596
rradius 39.7806
rwrist -0.771001
rhand -19.4909 -8.80203
rfingers 7.12502
rthumb 6.8313 -38.6718
lclavicle -3.12092e-014 -6.7388e-014
lhumerus -29.6308 -3.07451 82.3812
lradius 41.092
lwrist 24.8171
lhand -18.6102 11.374
lfingers 7.12502
lthumb 7.68143 41.2145
rfemur -71.3963 -2.15136 17.9242
rtibia 51.6255
rfoot 23.3935 -17.2303
rtoes 3.44821
lfemur -51.6322 20.5028 -30.5274
ltibia 77.1067
lfoot 10.7295 -4.07626
ltoes -33.5035
904
root -15.1703 15.9595 -6.50312 501.1 -92.7168 -488.749
lowerback 35.2021 -1.35278 1.55474
upperback 8.98892 -2.29307 -1.24083
thorax -7.78889 -1.46863 -1.22954
lowerneck 2.65601 0.0632814 1.44171
upperneck -23.0955 -0.0587163 1.66579
head -7.51499 -0.608201 0.346948
rclavicle -2.08724e-015 2.52457e-014
rhumerus -30.3796 0.346788 -86.9262
rradius 39.7072
rwrist -0.734925
rhand -19.4929 -8.79988
rfingers 7.12502
rthumb 6.82936 -38.6697
lclavicle -2.08724e-015 2.52457e-014
lhumerus -29.7269 -3.08529 82.3781
lradius 41.0676
lwrist 24.8325
lhand -18.5828 11.3582
lfingers 7.12502
lthumb 7.70781 41.1977
rfemur -71.1463 -2.20761 17.9453
rtibia 50.9929
rfoot 23.4957 -17.9609
rtoes 4.78435
lfemur -51.1211 20.5373 -30.2756
ltibia 77.0673
lfoot 10.8391 -4.32622
ltoes -33.6563
905
root -15.3075 15.9581 -6.52699 503.418 -92.9175 -491.035
lowerback 35.0415 -1.40385 1.54922
upperback 9.07281 -2.35601 -1.24171
thorax -7.76611 -1.49603 -1.20358
lowerneck 2.66563 0.0449049 1.44855
upperneck -23.0504 -0.0785159 1.67797
head -7.50177 -0.617284 0.350745
rclavicle 4.37326e-015 -1.04362e-014
rhumerus -30.4166 0.296698 -86.8933
rradius 39.6396
rwrist -0.680999
rhand -19.493 -8.79924
rfingers 7.12502
rthumb 6.82922 -38.6691
lclavicle 4.37326e-015 -1.04362e-014
lhumerus -29.8279 -3.09328 82.3724
lradius 41.032
lwrist 24.8461
lhand -18.5632 11.3469
lfingers 7.12502
lthumb 7.72674 41.1857
rfemur -70.8785 -2.28453 17.9715
rtibia 50.6293
rfoot 23.5948 -18.6117
rtoes 5.87276
lfemur -50.5824 20.5541 -30.0119
ltibia 77.0446
lfoot 10.9301 -4.59661
ltoes -33.8691
906
root -15.4484 15.9534 -6.55211 505.713 -93.1489 -493.318
lowerback 34.9706 -1.46756 1.54725
upperback 9.07454 -2.43092 -1.23643
thorax -7.74083 -1.52909 -1.17129
lowerneck 2.67857 0.0257842 1.45159
upperneck -23.0037 -0.099989 1.68776
head -7.48857 -0.626509 0.354504
rclavicle 1.10325e-014 9.93923e-017
rhumerus -30.4566 0.240367 -86.8587
rradius 39.5791
rwrist -0.610398
rhand -19.486 -8.79704
rfingers 7.12502
rthumb 6.83605 -38.6667
lclavicle 1.10325e-014 9.93923e-017
lhumerus -29.9303 -3.09479 82.3649
lradius 40.9886
lwrist 24.8487
lhand -18.5455 11.3599
lfingers 7.12502
lthumb 7.74384 41.1981
rfemur -70.5869 -2.38495 18.0074
rtibia 50.527
rfoot 23.7083 -19.1726
rtoes 6.69694
lfemur -50.0167 20.5527 -29.733
ltibia 77.0438
lfoot 11.0132 -4.86784
ltoes -34.1058
907
root -15.5932 15.9451 -6.57854 507.978 -93.4073 -495.594
lowerback 34.9024 -1.54128 1.55247
upperback 9.07971 -2.51551 -1.22675
thorax -7.71296 -1.56683 -1.1347
lowerneck 2.69983 0.00514153 1.45643
upperneck -22.9608 -0.123955 1.69342
head -7.47816 -0.636761 0.35683
rclavicle 1.44119e-014 -1.799e-014
rhumerus -30.5038 0.172116 -86.823
rradius 39.5266
rwrist -0.526281
rhand -19.4788 -8.78534
rfingers 7.12502
rthumb 6.84293 -38.6547
lclavicle 1.44119e-014 -1.799e-014
lhumerus -30.0374 -3.09015 82.3554
lradius 40.9416
lwrist 24.8405
lhand -18.5396 11.3666
lfingers 7.12502
lthumb 7.74957 41.2046
rfemur -70.2627 -2.50759 18.0593
rtibia 50.6688
rfoot 23.8056 -19.6721
rtoes 7.53384
lfemur -49.4219 20.5351 -29.4291
ltibia 77.0728
lfoot 11.0649 -5.13296
ltoes -34.3214
908
root -15.7421 15.9331 -6.60635 510.221 -93.6843 -497.868
lowerback 34.831 -1.62075 1.5697
upperback 9.08882 -2.60283 -1.2114
thorax -7.67961 -1.60604 -1.09778
lowerneck 2.7276 -0.0191043 1.45908
upperneck -22.9203 -0.151728 1.70482
head -7.46967 -0.649176 0.361713
rclavicle 1.73937e-014 3.23025e-014
rhumerus -30.5608 0.0847572 -86.7863
rradius 39.4794
rwrist -0.440253
rhand -19.4716 -8.77036
rfingers 7.12502
rthumb 6.84993 -38.6395
lclavicle 1.73937e-014 3.23025e-014
lhumerus -30.1467 -3.07785 82.3431
lradius 40.8903
lwrist 24.8115
lhand -18.5237 11.3768
lfingers 7.12502
lthumb 7.76485 41.2142
rfemur -69.8977 -2.63858 18.1289
rtibia 51.0342
rfoot 23.8175 -19.9278
rtoes 8.39176
lfemur -48.7997 20.509 -29.0902
ltibia 77.1359
lfoot 11.0865 -5.36915
ltoes -34.4564
909
root -15.8949 15.9166 -6.63551 512.462 -93.9719 -500.153
lowerback 34.7506 -1.70334 1.60339
upperback 9.09837 -2.68771 -1.19006
thorax -7.64254 -1.64415 -1.06458
lowerneck 2.75572 -0.0472719 1.46004
upperneck -22.8726 -0.182436 1.72803
head -7.45885 -0.663618 0.370894
rclavicle -3.77691e-015 -1.66979e-014
rhumerus -30.6302 -0.0188342 -86.7516
rradius 39.4286
rwrist -0.368816
rhand -19.4788 -8.75224
rfingers 7.12502
rthumb 6.84298 -38.6217
lclavicle -3.77691e-015 -1.66979e-014
lhumerus -30.2607 -3.05697 82.3269
lradius 40.8354
lwrist 24.7586
lhand -18.5067 11.371
lfingers 7.12502
lthumb 7.78127 41.2079
rfemur -69.5002 -2.77391 18.2306
rtibia 51.5993
rfoot 23.5723 -19.6486
rtoes 9.07848
lfemur -48.1613 20.4802 -28.7081
ltibia 77.2429
lfoot 11.0893 -5.53957
ltoes -34.4056
910
root -16.0513 15.8955 -6.6657 514.737 -94.2602 -502.481
lowerback 34.6632 -1.78863 1.6649
upperback 9.10395 -2.76575 -1.1647
thorax -7.60762 -1.67897 -1.04466
lowerneck 2.77873 -0.0810314 1.45942
upperneck -22.809 -0.217787 1.76614
head -7.44184 -0.68092 0.385379
rclavicle -2.88238e-015 -1.60022e-014
rhumerus -30.7188 -0.147928 -86.7185
rradius 39.3737
rwrist -0.313171
rhand -19.4868 -8.73805
rfingers 7.12502
rthumb 6.83522 -38.6077
lclavicle -2.88238e-015 -1.60022e-014
lhumerus -30.3784 -3.02792 82.3038
lradius 40.7702
lwrist 24.6868
lhand -18.4841 11.3589
lfingers 7.12502
lthumb 7.80308 41.1949
rfemur -69.0891 -2.91815 18.391
rtibia 52.3447
rfoot 22.9613 -18.8021
rtoes 9.57172
lfemur -47.5155 20.4547 -28.2789
ltibia 77.3926
lfoot 11.051 -5.68259
ltoes -34.2735
911
root -16.2098 15.8711 -6.69643 517.013 -94.5446 -504.815
lowerback 34.5696 -1.87511 1.75624
upperback 9.10423 -2.83453 -1.13645
thorax -7.57672 -1.70934 -1.04108
lowerneck 2.78776 -0.120697 1.4533
upperneck -22.7253 -0.257884 1.82479
head -7.41567 -0.701256 0.407609
rclavicle -1.87852e-014 -2.89232e-014
rhumerus -30.8212 -0.297951 -86.6881
rradius 39.3092
rwrist -0.280729
rhand -19.5005 -8.72841
rfingers 7.12502
rthumb 6.82207 -38.5985
lclavicle -1.87852e-014 -2.89232e-014
lhumerus -30.4954 -2.9788 82.2743
lradius 40.6926
lwrist 24.5933
lhand -18.458 11.3269
lfingers 7.12502
lthumb 7.82831 41.162
rfemur -68.7013 -3.07711 18.6278
rtibia 53.2471
rfoot 21.9319 -17.4513
rtoes 9.85493
lfemur -46.8709 20.4291 -27.8121
ltibia 77.5681
lfoot 10.9788 -5.8031
ltoes -34.13
912
root -16.3693 15.8442 -6.727 519.178 -94.8225 -507.032
lowerback 34.473 -1.96268 1.8746
upperback 9.09606 -2.89519 -1.10948
thorax -7.55465 -1.73565 -1.05611
lowerneck 2.77906 -0.163833 1.44155
upperneck -22.6237 -0.300923 1.89791
head -7.3804 -0.723323 0.435462
rclavicle -1.99779e-014 -2.77305e-014
rhumerus -30.9347 -0.463123 -86.6587
rradius 39.233
rwrist -0.253661
rhand -19.5125 -8.71844
rfingers 7.12502
rthumb 6.81041 -38.5889
lclavicle -1.99779e-014 -2.77305e-014
lhumerus -30.6052 -2.90829 82.2369
lradius 40.5975
lwrist 24.4927
lhand -18.4312 11.2934
lfingers 7.12502
lthumb 7.85416 41.1275
rfemur -68.3855 -3.26701 18.952
rtibia 54.2849
rfoot 20.5054 -15.8602
rtoes 9.85782
lfemur -46.2327 20.3905 -27.3212
ltibia 77.7552
lfoot 10.8903 -5.89771
ltoes -33.9741
913
root -16.5285 15.8168 -6.75692 521.142 -95.0833 -509.045
lowerback 34.3904 -2.0482 2.01254
upperback 9.07908 -2.94687 -1.08576
thorax -7.54794 -1.75768 -1.0876
lowerneck 2.75078 -0.206575 1.42385
upperneck -22.5115 -0.343879 1.97595
head -7.33808 -0.745078 0.465686
rclavicle 9.93923e-017 -5.40694e-014
rhumerus -31.0529 -0.630338 -86.631
rradius 39.1496
rwrist -0.228443
rhand -19.5241 -8.70672
rfingers 7.12502
rthumb 6.79927 -38.5775
lclavicle 9.93923e-017 -5.40694e-014
lhumerus -30.7051 -2.8164 82.1933
lradius 40.4858
lwrist 24.4081
lhand -18.4279 11.2441
lfingers 7.12502
lthumb 7.85736 41.078
rfemur -68.175 -3.4748 19.3501
rtibia 55.4273
rfoot 18.9049 -14.3716
rtoes 9.67648
lfemur -45.5933 20.3296 -26.8149
ltibia 77.9303
lfoot 10.7889 -6.00605
ltoes -33.9322
